<?xml version="1.0" encoding="UTF-8" standalone="no"?>
<!-- This Source Code Form is subject to the terms of the Mozilla Public
   - License, v. 2.0. If a copy of the MPL was not distributed with this
   - file, You can obtain one at http://mozilla.org/MPL/2.0/. -->

<!-- Created with Inkscape (http://www.inkscape.org/) -->

<svg
   xmlns:dc="http://purl.org/dc/elements/1.1/"
   xmlns:cc="http://creativecommons.org/ns#"
   xmlns:rdf="http://www.w3.org/1999/02/22-rdf-syntax-ns#"
   xmlns:svg="http://www.w3.org/2000/svg"
   xmlns="http://www.w3.org/2000/svg"
   xmlns:sodipodi="http://sodipodi.sourceforge.net/DTD/sodipodi-0.dtd"
   xmlns:inkscape="http://www.inkscape.org/namespaces/inkscape"
   id="svg2"
   sodipodi:version="0.32"
   inkscape:version="0.91 r13725"
   width="1530"
   height="990"
   xml:space="preserve"
   sodipodi:docname="mozilla_community_logo.svg"
   inkscape:output_extension="org.inkscape.output.svg.inkscape"
   version="1.1"><metadata
     id="metadata7"><rdf:RDF><cc:Work
         rdf:about=""><dc:format>image/svg+xml</dc:format><dc:type
           rdf:resource="http://purl.org/dc/dcmitype/StillImage" /></cc:Work></rdf:RDF></metadata><defs
     id="defs5"><inkscape:perspective
       sodipodi:type="inkscape:persp3d"
       inkscape:vp_x="0 : 526.18109 : 1"
       inkscape:vp_y="0 : 1000 : 0"
       inkscape:vp_z="744.09448 : 526.18109 : 1"
       inkscape:persp3d-origin="372.04724 : 350.78739 : 1"
       id="perspective9" /><clipPath
       clipPathUnits="userSpaceOnUse"
       id="clipPath19"><path
         d="M 0,792 L 1224,792 L 1224,0 L 0,0 L 0,792 z"
         id="path21" /></clipPath></defs><sodipodi:namedview
     inkscape:window-height="1370"
     inkscape:window-width="2560"
     inkscape:pageshadow="2"
     inkscape:pageopacity="0.0"
     guidetolerance="10.0"
     gridtolerance="10.0"
     objecttolerance="10.0"
     borderopacity="1.0"
     bordercolor="#666666"
     pagecolor="#ffffff"
     id="base"
     showgrid="false"
     inkscape:zoom="1.0296954"
     inkscape:cx="765"
     inkscape:cy="495"
     inkscape:window-x="0"
     inkscape:window-y="33"
     inkscape:current-layer="g23"
     inkscape:window-maximized="1" /><g
     id="g11"
     inkscape:groupmode="layer"
     inkscape:label="mozilla_community_logo"
     transform="matrix(1.25, 0, 0, -1.25, 0, 990)"><g
       id="g15"><g
         id="g17"
         clip-path="url(#clipPath19)"><g
           id="g23"
           transform="translate(844.275, 176.431)" /><g
           id="g27"
           transform="translate(317.14, 357.92)"
           style="fill:#c13832;fill-opacity:1"><path
             d="M 0,0 L 23.75,6.479 C 25.517,3.73 26.303,1.376 27.282,-3.73 C 34.154,2.944 42.594,6.479 51.818,6.479 C 60.062,6.479 66.932,3.73 72.23,-1.765 C 73.604,-3.141 74.192,-3.923 76.158,-6.671 C 85.382,2.748 93.626,6.479 104.618,6.479 C 112.468,6.479 119.928,4.124 124.44,0.197 C 130.133,-4.709 131.9,-10.598 131.9,-24.338 L 131.9,-95.782 L 106.385,-95.782 L 106.385,-29.44 C 106.385,-17.466 105.009,-15.111 98.141,-15.111 C 93.235,-15.111 86.363,-18.448 80.671,-23.551 L 80.671,-95.782 L 55.744,-95.782 L 55.744,-30.423 C 55.744,-17.859 53.979,-14.914 46.714,-14.914 C 41.808,-14.914 35.132,-17.466 29.442,-22.572 L 29.442,-95.782 L 3.73,-95.782 L 3.73,-25.709 C 3.73,-11.188 2.748,-4.906 0,0"
             style="fill:#c13832;fill-opacity:1;fill-rule:nonzero;stroke:none"
             id="path29" /></g><g
           id="g31"
           transform="translate(512.87, 345.164)"
           style="fill:#c13832;fill-opacity:1"><path
             d="M 0,0 C -6.28,0 -11.383,-3.928 -13.543,-10.21 C -15.31,-15.509 -16.291,-22.573 -16.291,-32.586 C -16.291,-44.163 -15.111,-52.8 -12.953,-57.906 C -10.599,-63.398 -4.709,-66.146 0.393,-66.146 C 11.777,-66.146 16.684,-55.94 16.684,-32.192 C 16.684,-18.646 14.919,-9.816 11.385,-5.3 C 8.833,-1.966 4.709,0 0,0 M -0.394,19.432 C 13.936,19.432 25.124,14.521 33.761,4.315 C 41.808,-5.104 45.342,-16.095 45.342,-32.39 C 45.342,-49.659 41.415,-61.437 32.78,-71.249 C 25.124,-79.886 15.115,-85.185 -0.394,-85.185 C -27.675,-85.185 -45.535,-64.774 -45.535,-33.172 C -45.535,-1.573 -27.479,19.432 -0.394,19.432"
             style="fill:#c13832;fill-opacity:1;fill-rule:nonzero;stroke:none"
             id="path33" /></g><g
           id="g35"
           transform="translate(569.145, 362.044)"
           style="fill:#c13832;fill-opacity:1"><path
             d="M 0,0 L 74.585,0 L 74.585,-18.06 L 30.227,-81.654 L 76.35,-81.654 L 70.073,-99.906 L -3.927,-99.906 L -3.927,-83.615 L 43.376,-18.453 L 0,-18.453 L 0,0 z"
             style="fill:#c13832;fill-opacity:1;fill-rule:nonzero;stroke:none"
             id="path37" /></g><g
           id="g39"
           transform="translate(658.904, 360.864)"
           style="fill:#c13832;fill-opacity:1"><path
             d="M 0,0 L 26.3,4.124 L 26.3,-98.727 L 0,-98.727 L 0,0 z M 13.543,45.735 C 22.376,45.735 29.44,38.471 29.44,29.444 C 29.44,20.415 22.18,13.149 13.149,13.149 C 4.316,13.149 -2.944,20.415 -2.944,29.444 C -2.944,38.471 4.513,45.735 13.543,45.735"
             style="fill:#c13832;fill-opacity:1;fill-rule:nonzero;stroke:none"
             id="path41" /></g><g
           id="g43"
           transform="translate(733.532, 407.382)"
           style="fill:#c13832;fill-opacity:1"><path
             d="M 0,0 C 0.979,-5.496 1.372,-11.97 1.372,-26.103 L 1.372,-104.419 C 1.372,-121.692 1.568,-124.048 3.137,-126.795 C 4.119,-128.561 6.277,-129.543 8.436,-129.543 C 9.419,-129.543 10.009,-129.543 11.381,-129.15 L 15.894,-144.851 C 11.381,-146.616 5.885,-147.599 0.192,-147.599 C -10.991,-147.599 -20.025,-142.3 -23.162,-133.859 C -25.128,-128.757 -25.518,-125.616 -25.518,-111.287 L -25.518,-36.308 C -25.518,-23.158 -25.91,-15.111 -26.894,-6.085 L 0,0 z"
             style="fill:#c13832;fill-opacity:1;fill-rule:nonzero;stroke:none"
             id="path45" /></g><g
           id="g47"
           transform="translate(786.034, 407.382)"
           style="fill:#c13832;fill-opacity:1"><path
             d="M 0,0 C 0.983,-5.496 1.376,-11.97 1.376,-26.103 L 1.376,-104.419 C 1.376,-121.692 1.573,-124.048 3.142,-126.795 C 4.124,-128.561 6.282,-129.543 8.44,-129.543 C 9.424,-129.543 10.013,-129.543 11.385,-129.15 L 15.902,-144.851 C 11.385,-146.616 5.889,-147.599 0.197,-147.599 C -10.991,-147.599 -20.017,-142.3 -23.162,-133.859 C -25.124,-128.757 -25.517,-125.616 -25.517,-111.287 L -25.517,-36.308 C -25.517,-23.158 -25.91,-15.111 -26.889,-6.085 L 0,0 z"
             style="fill:#c13832;fill-opacity:1;fill-rule:nonzero;stroke:none"
             id="path49" /></g><g
           id="g51"
           transform="translate(862.782, 306.103)"
           style="fill:#c13832;fill-opacity:1"><path
             d="M 0,0 L -1.179,0 C -19.432,0 -25.713,-3.338 -25.713,-15.312 C -25.713,-23.162 -20.808,-28.462 -14.132,-28.462 C -9.227,-28.462 -4.32,-25.91 -0.393,-21.59 L 0,0 z M -51.624,44.556 C -45.146,48.676 -42.397,50.052 -35.333,52.8 C -25.517,56.919 -17.076,58.688 -7.854,58.688 C 9.026,58.688 20.607,52.406 24.535,41.219 C 25.906,37.095 26.3,33.957 26.3,23.158 L 25.714,-10.599 L 25.714,-12.367 C 25.714,-23.162 27.479,-27.282 35.133,-32.975 L 21.197,-49.072 C 15.111,-46.518 9.616,-42.004 7.064,-36.901 C 3.334,-40.432 2.945,-40.825 0.979,-42.201 C -3.927,-45.73 -10.991,-47.696 -19.234,-47.696 C -41.611,-47.696 -53.782,-36.312 -53.782,-16.291 C -53.782,7.261 -37.491,18.252 -5.495,18.252 C -3.534,18.252 -2.354,18.252 0.394,18.056 L 0.394,22.18 C 0.394,33.368 -1.769,37.095 -11.385,37.095 C -19.824,37.095 -29.641,32.975 -40.432,25.714 L -51.624,44.556 z"
             style="fill:#c13832;fill-opacity:1;fill-rule:nonzero;stroke:none"
             id="path53" /></g><g
           id="g55"
           transform="translate(904.657, 448.498)" /><g
           id="g59"
           transform="translate(821.092, 461.898)"
           style="fill:#c13832;fill-opacity:1"><path
             d="M 0,0 C 1.226,3.961 -0.778,5.948 -2.882,7.875 C -2.522,10.053 -3.032,11.701 -3.902,13.129 C -1.472,17.566 5.203,16.011 8.001,19.925 C 11.205,16.862 16.729,18.403 21.473,16.874 C 24.693,15.835 26.947,13.714 30.353,13.367 C 32.033,11.439 29.9,9.929 29.653,7.064 C 33.753,2.798 32.995,-5.579 41.26,-6.529 C 42.218,-8.384 43.096,-10.287 44.092,-12.119 C 28.679,-7.832 15.985,-4.768 -0.385,-1.288 L 0,0 z M -128.385,17.058 C -138.306,17.786 -148.31,18.363 -158.377,18.798 C -158.089,18.959 -158.938,18.913 -158.377,18.798 C -158.293,20.538 -157.662,21.699 -158.532,22.477 C -160.046,23.828 -162.388,24.35 -163.421,26.178 C -162.957,27.688 -161.33,30.264 -160.456,31.369 C -157.662,35.342 -159.854,35.162 -158.804,37.414 C -157.265,40.712 -155.638,43.682 -154.031,49.303 C -153.229,52.515 -154.232,52.411 -152.53,53.234 C -147.934,54.284 -142.844,56.484 -138.339,56.539 C -138.347,52.452 -137.13,44.422 -136.067,40.306 C -135.043,39.792 -133.901,39.395 -133.42,38.328 C -132.521,34.271 -132.111,35.177 -130.476,31.101 C -129.338,28.273 -127.736,21.259 -128.385,17.058 M -214.171,28.514 C -217.325,29.144 -217.806,41.413 -216.885,43.665 C -202.134,42.149 -184.183,46.902 -168.699,50.269 C -169.352,47.095 -170.728,45.384 -171.665,42.348 C -173.133,37.655 -173.083,31.708 -174.643,28.487 C -175.843,26.004 -179.038,24.837 -178.302,22.023 L -176.019,19.392 C -184.384,19.607 -192.782,19.741 -201.223,19.75 C -202.293,19.75 -203.355,19.731 -204.426,19.729 C -203.309,20.864 -203.372,22.922 -204.016,24.191 C -205.279,26.68 -211.665,27.303 -213.697,28.445 L -214.171,28.514 z M -250.031,41.913 C -250.299,40.896 -250.621,39.913 -250.926,38.935 C -251.842,36 -255.213,25.212 -255.519,18.344 C -255.627,17.679 -255.531,18.865 -255.519,18.344 C -264.808,17.861 -274.018,17.253 -283.144,16.523 C -286.995,16.799 -290.547,16.914 -292.462,20.565 C -292.784,21.891 -293.224,24.141 -291.082,28.156 C -286.046,37.604 -280.5,41.85 -270.751,46.576 C -269.358,47.253 -267.911,47.876 -266.418,48.45 C -263.348,50.229 -261.103,51.177 -256.682,50.229 C -251.198,48.232 -246.208,47.373 -250.031,41.913 M -411.859,-3.022 C -417.049,-2.104 -423.955,-3.476 -426.317,1.213 C -426.899,20.837 -415.987,31.841 -400.006,39.043 C -390.62,31.036 -383.828,16.201 -380.875,3.488 C -391.382,1.489 -401.721,-0.68 -411.859,-3.022 M -105.645,15.107 C -106.72,15.209 -107.794,15.316 -108.869,15.417 C -109.58,18.313 -112.328,20.697 -114.984,21.218 C -115.8,23.7 -118.698,41.53 -118.698,44.752 C -118.698,49.571 -121.375,50.374 -123.156,60.165 C -107.054,64.431 -93.034,72.482 -84.046,85.128 C -78.12,93.449 -74.372,103.75 -73.653,116.272 C -72.457,136.963 -76.702,152.632 -86.196,162.476 C -86.869,163.179 -89.983,166.821 -96.74,167.252 C -97.137,167.278 -97.556,167.167 -97.944,166.953 C -98.84,166.46 -101.437,164.076 -102.127,163.814 C -109.76,163.772 -116.005,161.713 -117.138,154.492 C -117.2,154.391 -117.205,154.295 -117.176,154.203 C -117.188,154.099 -117.205,154 -117.218,153.896 C -115.67,149.013 -109.271,149.334 -103.022,149.933 C -100.274,148.201 -99.342,145.027 -96.753,143.002 C -95.786,142.246 -94.397,142.116 -93.277,141.442 C -93.231,141.415 -93.173,141.388 -93.126,141.353 C -89.655,139.079 -85.645,134.663 -86.196,129.477 C -86.594,125.7 -86.581,121.528 -87.514,117.594 C -89.115,110.854 -92.922,104.664 -97.79,100.16 C -103.604,94.787 -110.943,91.813 -117.87,93.173 C -122.299,94.041 -125.921,97.089 -129.602,99.52 C -135.867,103.66 -142.17,107 -147.745,112.086 C -150.129,114.258 -152.864,116.136 -155.616,117.812 C -161.401,121.333 -167.767,123.924 -174.187,126.039 C -178.043,127.308 -181.937,128.435 -185.86,129.477 C -191.674,131.016 -197.696,133.247 -203.355,134.094 C -208.843,134.916 -214.853,134.679 -220.437,133.903 C -221.553,133.747 -222.653,133.571 -223.728,133.376 C -227.873,133.266 -231.67,132.258 -235.288,130.773 C -236.493,130.275 -237.676,129.729 -238.856,129.142 C -240.24,128.37 -241.633,127.594 -243.026,126.808 C -254.778,120.697 -266.205,113.079 -273.219,101.556 C -274.26,100.253 -275.293,98.932 -276.322,97.591 C -277.117,96.506 -277.899,95.406 -278.673,94.29 C -280.994,90.943 -283.24,87.472 -285.532,83.925 C -292.952,72.457 -300.995,61.932 -306.323,49.938 C -311.317,38.694 -311.626,23.56 -305.215,14.526 C -320.953,12.903 -336.395,10.893 -351.531,8.549 C -354.032,10.433 -357.926,9.837 -361.519,8.126 C -363.49,9.311 -365.119,10.95 -366.497,12.924 C -375.522,25.86 -373.767,53.17 -386.685,60.917 C -385.961,66.422 -383.77,74.42 -383.891,82.461 C -383.975,88.091 -389.579,97.84 -381.586,99.237 C -380.386,95.594 -381.607,93.769 -381.586,91.015 C -375.158,92.169 -380.051,89.264 -379.779,86.573 C -377.236,84.651 -373.333,86.659 -374.514,90.849 C -372.439,93.558 -377.743,99.576 -375.175,103.677 C -377.362,105.331 -382.063,103.626 -385.702,103.349 C -396.263,115.858 -387.095,137.743 -370.737,130.156 C -368.7,133.77 -362.949,134.596 -362.677,139.531 C -362.954,141.449 -363.226,143.371 -363.501,145.286 C -362.452,148.743 -364.605,149.297 -365.476,150.878 C -374.681,152.306 -384.363,153.103 -388.169,161.731 C -393.565,160.261 -398.943,158.024 -403.302,160.745 C -404.836,160.525 -406.372,160.305 -407.906,160.085 C -415.773,154.68 -423.143,148.9 -427.476,140.844 C -424.762,141.204 -424.369,143.312 -420.734,142.981 C -421.491,139.782 -424.741,138.452 -425.502,135.252 C -423.415,135.401 -423.273,137.009 -421.061,137.059 C -421.458,134.273 -424.448,133.433 -424.846,130.647 C -423.691,130.811 -422.541,130.976 -421.391,131.141 C -421.746,129.351 -422.679,127.996 -423.034,126.206 C -421.545,122.95 -421.692,129.125 -418.593,128.017 C -419.434,123.169 -420.466,124.863 -417.605,121.107 C -430.084,92.351 -437.579,92.708 -446.381,42.987 C -453.684,18.326 -516.659,19.432 -540.29,34.267 C -519.503,9.9 -484.638,4.312 -440.626,10.917 C -441.797,3.656 -441.667,-3.846 -439.986,-10.065 C -502.551,-27.075 -556.605,-50.76 -598.17,-79.558 C -495.709,-36.362 -394.117,-1.263 -199.089,-1.438 C -26.655,-1.591 92.541,-36.101 193.903,-76.815 C 157.595,-52.753 111.601,-32.266 59.04,-16.431 C 59.165,-15.728 58.889,-11.742 56.526,-11.071 C 55.56,-9.076 55.284,-6.658 53.548,-5.136 C 53.619,1.28 51.737,10.26 56.024,15.649 C 56.869,16.42 58.354,16.293 59.755,16.282 C 60.286,15.622 59.011,14.576 59.145,13.325 C 61.691,9.787 62.804,5.375 66.873,2.769 C 67.835,-0.092 65.297,-1.535 63.243,-3.208 C 62.335,-3.948 60.374,-4.948 60.102,-5.362 C 59.583,-6.148 60.729,-5.743 60.457,-6.556 C 60.349,-6.87 59.726,-6.884 59.713,-7.244 C 59.688,-8.164 61.135,-8.597 60.026,-10.109 C 64.648,-12.551 70.015,-12.414 73.122,-9.162 C 74.134,-8.101 74.941,-6.014 76.188,-4.469 C 77.497,-2.84 79.304,-1.719 79.663,-0.703 C 81.148,3.518 80.943,16.504 78.639,19.12 C 78.267,21.757 78.643,22.167 77.229,24.581 C 79.35,23.47 86.101,25.22 91.257,29.411 C 95.72,28.667 98.752,29.942 101.354,31.818 C 104.478,31.211 107.037,30.001 109.237,30.756 C 110.342,31.134 110.333,32.261 111.174,32.878 C 112.775,34.062 114.248,36.979 114.637,38.05 C 112.68,39.453 113.136,43.157 114.637,45.333 C 116.511,44.834 116.234,43.021 117.251,41.996 C 120.823,44.79 120.718,50.735 116.419,52.532 C 115.774,54.757 116.586,57.243 117.569,59.579 C 112.187,58.383 110.146,52.481 102.901,53.912 C 107.401,61.436 113.449,66.775 117.907,74.36 C 109.647,70.638 104.102,63.088 96.832,57.963 C 95.515,58.492 95.958,60.091 95.716,61.275 C 94.837,61.591 94.511,61.123 93.875,61.093 C 94.298,68.643 96.883,75.362 99.571,81.493 C 94.586,78.237 91.198,72.729 89.069,65.443 C 86.812,64.941 87.079,66.923 85.606,67.557 C 84.406,67.86 84.185,66.786 83.08,66.957 C 82.16,67.254 81.977,68.002 81.286,68.446 C 78.789,68.271 77.514,66.374 74.172,67.388 C 73.54,64.579 70.893,64.615 68.681,64.036 C 67.965,61.346 66.167,60.182 64.121,59.37 C 58.806,59.642 55.38,64.101 50.9,66.572 C 46.212,69.159 39.14,71.742 31.771,72.75 C 21.339,74.18 11.368,70.688 4.923,66.227 C 2.66,64.659 1.2,62.388 -1.351,60.514 C -4.722,58.04 -9.272,56.3 -13.305,53.448 C -20.774,48.161 -27.927,42.887 -38.144,40.628 C -43.226,39.503 -48.684,38.14 -53.535,38.75 C -56.71,39.152 -60.585,39.412 -67.518,40.788 C -62.456,36.896 -56.794,33.307 -49.391,31.174 C -36.174,27.366 -21.766,28.039 -8.486,25.839 C -9.595,23.893 -13.317,23.593 -14.362,20.605 C -14.806,19.335 -14.162,17.249 -14.551,15.32 C -15.282,11.686 -16.495,3.024 -15.91,2.192 C -44.748,7.961 -72.474,11.833 -103.528,14.902 L -105.645,15.107 z"
             style="fill:#c13832;fill-opacity:1;fill-rule:nonzero;stroke:none"
             id="path61" /></g><g
           id="g63"
           transform="translate(486.301, 157.501)"
           style="fill:#c13832;fill-opacity:1"><path
             d="M 0,0 L -3.335,36.064 L -15.393,0 L -25.623,0 L -37.454,36.459 L -40.679,0 L -52.689,0 L -46.912,56.916 L -46.729,58.714 L -32.04,58.714 L -21.422,25.646 C -21.053,24.448 -20.645,22.981 -20.251,21.495 C -19.88,22.853 -19.502,24.198 -19.158,25.344 L -8.654,58.714 L 6.683,58.714 L 12.308,0 L 0,0 z"
             style="fill:#c13832;fill-opacity:1;fill-rule:nonzero;stroke:none"
             id="path65" /></g><g
           id="g67"
           transform="translate(506.903, 157.5)"
           style="fill:#c13832;fill-opacity:1"><path
             d="M 0,0 L 5.78,56.918 L 5.961,58.716 L 20.654,58.716 L 31.274,25.646 C 31.642,24.449 32.048,22.983 32.441,21.499 C 32.812,22.856 33.189,24.201 33.533,25.346 L 44.037,58.716 L 59.375,58.716 L 65,0.002 L 52.691,0.002 L 49.354,36.061 L 37.299,0.002 L 27.068,0.002 L 15.238,36.464 L 12.012,0 L 0,0 z"
             style="fill:#c13832;fill-opacity:1;fill-rule:nonzero;stroke:none"
             id="path69" /></g><g
           id="g71"
           transform="translate(583.563, 167.017)"
           style="fill:#c13832;fill-opacity:1"><path
             d="M 0,0 C -1.606,3.256 -2.116,5.911 -2.086,12.396 L -2.086,47.199 L -2.086,49.2 L 10.302,49.2 L 10.302,14.387 C 10.287,10.269 10.634,6.929 10.947,5.861 C 11.465,4.367 12.518,3.165 14.184,2.247 C 15.86,1.331 18.16,0.772 20.88,0.776 C 25.521,0.776 28.222,1.974 29.414,3.705 C 30.201,4.83 30.583,5.628 30.863,6.825 C 31.135,8.019 31.25,9.671 31.246,12.188 L 31.246,49.2 L 43.631,49.2 L 43.631,12.396 C 43.625,7.828 43.409,4.618 42.572,1.892 C 41.744,-0.845 40.2,-2.947 38.06,-4.896 C 33.738,-8.895 28.131,-10.483 20.669,-10.461 L 20.41,-10.461 C 8.961,-10.461 2.667,-5.59 0,0"
             style="fill:#c13832;fill-opacity:1;fill-rule:nonzero;stroke:none"
             id="path73" /></g><g
           id="g75"
           transform="translate(673.662, 157.501)"
           style="fill:#c13832;fill-opacity:1"><path
             d="M 0,0 L -18.202,30.015 C -19.311,31.889 -20.513,34.062 -21.631,36.142 C -21.575,34.363 -21.529,32.359 -21.5,30.127 L -20.939,0 L -33.573,0 L -33.573,56.715 L -33.573,58.714 L -20.798,58.714 L -2.396,27.97 C -1.5,26.468 -0.634,24.945 0.169,23.498 C 0.07,25.309 -0.006,27.23 -0.034,29.124 L -0.368,58.714 L 11.826,58.714 L 11.826,0 L 0,0 z"
             style="fill:#c13832;fill-opacity:1;fill-rule:nonzero;stroke:none"
             id="path77" /></g><g
           id="g79"
           transform="translate(699.241, 157.501)"
           style="fill:#c13832;fill-opacity:1"><path
             d="M 0,0 L 0,56.814 L 0,58.815 L 12.389,58.815 L 12.389,0 L 0,0 z"
             style="fill:#c13832;fill-opacity:1;fill-rule:nonzero;stroke:none"
             id="path81" /></g><g
           id="g83"
           transform="translate(736.45, 157.5)"
           style="fill:#c13832;fill-opacity:1"><path
             d="M 0,0 L -0.002,47.688 L -16.245,47.688 L -16.245,56.715 L -16.245,58.716 L 29.854,58.716 L 28.38,47.69 L 12.177,47.69 L 12.177,0 L 0,0 z"
             style="fill:#c13832;fill-opacity:1;fill-rule:nonzero;stroke:none"
             id="path85" /></g><g
           id="g87"
           transform="translate(774.525, 157.5)"
           style="fill:#c13832;fill-opacity:1"><path
             d="M 0,0 L 0,56.816 L 0,58.817 L 12.387,58.817 L 12.387,0 L 0,0 z"
             style="fill:#c13832;fill-opacity:1;fill-rule:nonzero;stroke:none"
             id="path89" /></g><g
           id="g91"
           transform="translate(800.738, 157.5)"
           style="fill:#c13832;fill-opacity:1"><path
             d="M 0,0 L 0,56.504 L 0,58.503 L 38.414,58.503 L 36.611,47.48 L 12.387,47.48 L 12.387,35.968 L 32.925,35.968 L 32.925,24.944 L 12.49,24.944 L 12.49,11.337 L 39.007,11.337 L 39.007,0 L 0,0 z"
             style="fill:#c13832;fill-opacity:1;fill-rule:nonzero;stroke:none"
             id="path93" /></g><g
           id="g95"
           transform="translate(847.793, 161.621)"
           style="fill:#c13832;fill-opacity:1"><path
             d="M 0,0 L -1.73,0.941 L 3.588,11.091 L 5.374,10.117 C 10.909,7.106 15.955,5.756 21.707,5.749 C 25.445,5.758 27.519,6.234 29.388,7.497 L 29.41,7.515 L 29.466,7.546 C 31.792,9.024 32.785,10.623 32.809,12.656 C 32.774,14.338 32.334,15.384 31.035,16.558 C 29.724,17.715 27.353,18.833 23.721,19.734 L 15.67,21.829 C 7.086,23.935 1.058,30.188 1.053,37.918 C 1.036,43.238 3.478,47.895 7.483,51.042 C 11.489,54.206 16.992,55.954 23.282,55.954 C 30.683,55.935 38.396,53.923 43.621,50.24 L 45.154,49.151 L 39.345,39.793 L 37.652,40.824 C 33.081,43.6 28.424,45.034 23.701,45.034 C 20.474,45.041 17.938,44.32 16.363,43.253 C 14.792,42.157 14.094,40.927 14.064,39.177 C 14.104,37.496 14.951,36.096 17.85,34.845 L 17.884,34.832 L 17.933,34.809 C 19.383,34.151 19.482,34.003 22.153,33.373 L 22.198,33.363 L 29.634,31.37 C 34.129,30.23 38.622,28.083 41.573,25.287 C 44.417,22.41 46.014,18.214 46.032,14.021 C 46.026,7.559 42.22,1.474 36.094,-1.878 C 31.945,-4.179 26.887,-5.273 21.188,-5.273 C 13.727,-5.271 6.292,-3.418 0,0"
             style="fill:#c13832;fill-opacity:1;fill-rule:nonzero;stroke:none"
             id="path97" /></g><g
           id="g99"
           transform="translate(329.08, 165.09)"
           style="fill:#c13832;fill-opacity:1"><path
             d="M 0,0 C -4.993,5.317 -7.855,12.785 -7.851,21.346 C -7.854,29.993 -4.796,37.678 0.334,43.201 C 5.457,48.726 12.673,52.073 20.771,52.068 C 26.8,52.052 32.982,50.448 37.358,47.283 L 36.179,45.666 L 37.358,47.283 L 39.004,46.083 L 32.358,37.328 L 30.805,38.316 C 27.608,40.337 24.621,41.24 20.876,41.253 C 14.946,41.228 10.101,38.331 7.581,33.162 C 6.191,30.283 5.476,26.644 5.476,21.033 C 5.533,13.661 6.663,10.663 9.878,7.079 C 12.868,3.838 16.615,2.3 21.295,2.279 C 24.699,2.274 28.159,3.241 30.867,4.835 L 30.919,4.866 L 30.985,4.898 C 31.192,5.004 31.544,5.178 31.995,5.452 L 33.524,6.381 L 40.039,-2.082 L 38.441,-3.303 C 33.92,-6.722 27.287,-8.408 20.248,-8.425 L 20.215,-8.425 C 12.075,-8.425 4.98,-5.315 0,0"
             style="fill:#c13832;fill-opacity:1;fill-rule:nonzero;stroke:none"
             id="path101" /></g><g
           id="g103"
           transform="translate(397.59, 206.345)"
           style="fill:#c13832;fill-opacity:1"><path
             d="M 0,0 C -4.466,0.031 -8.738,-2.057 -10.399,-4.677 C -12.248,-7.383 -13.205,-11.576 -13.196,-18.228 C -13.211,-25.667 -11.935,-31.312 -9.747,-34.646 L -9.724,-34.683 L -9.701,-34.721 C -8.128,-37.439 -4.424,-39.282 1.153,-39.288 C 7.278,-39.208 10.776,-37.084 12.511,-32.77 C 13.861,-29.465 14.341,-26.636 14.352,-20.85 C 14.352,-13.539 13.52,-9.291 11.857,-6.064 C 9.475,-1.683 5.814,-0.072 0,0 M 0.315,10.812 C 9.627,10.843 16.738,7.161 21.547,1.299 C 25.931,-3.887 27.795,-10.755 27.785,-19.8 C 27.812,-29.184 26.236,-35.442 21.776,-40.775 C 16.846,-46.902 10.447,-49.79 1.274,-49.79 C 1.165,-49.79 1.054,-49.79 0.944,-49.789 C -7.636,-49.849 -13.767,-47.449 -18.684,-41.883 C -24.056,-35.876 -26.555,-28.612 -26.527,-19.281 C -26.53,-10.23 -24.069,-2.689 -19.382,2.617 C -14.705,7.93 -7.841,10.83 0.315,10.813 L 0.315,10.812 z"
             style="fill:#c13832;fill-opacity:1;fill-rule:nonzero;stroke:none"
             id="path105" /></g></g></g></g></svg>